# xmcd CD database file
#
# Track frame offsets:
#	150
#	18524
#	38472
#	55148
#	74498
#	93506
#	112170
#	133294
#	153792
#	170458
#	193714
#
# Disc length: 3514 seconds
#
# Revision: 6
# Processed by: cddbd v1.4PL0 Copyright (c) Steve Scherf et al.
# Submitted via: CDex 1.40Release
#
DISCID=950db80b
DTITLE=Max Gazzè - Max Gazzè
DYEAR=1900
DGENRE=Blues
TTITLE0=Poeta minore
TTITLE1=Su un ciliegio esterno
TTITLE2=Il timido ubriaco
TTITLE3=A
TTITLE4=Se piove
TTITLE5=L'uomo più furbo
TTITLE6=Del tutto personale
TTITLE7=Preferisco così
TTITLE8=Elemosina
TTITLE9=La tua realtà
TTITLE10=Adesso stop
EXTD=ID3G: 0
EXTT0=
EXTT1=
EXTT2=
EXTT3=
EXTT4=
EXTT5=
EXTT6=
EXTT7=
EXTT8=
EXTT9=
EXTT10=
PLAYORDER=
